<mxfile host="app.diagrams.net" agent="Mozilla/5.0 (Windows NT 10.0; Win64; x64) AppleWebKit/537.36 (KHTML, like Gecko) Chrome/130.0.0.0 Safari/537.36" version="24.8.6">
  <diagram name="RD" id="4ZG_WJ0ZFfDU5310WVBY">
    <mxGraphModel dx="1847" dy="1629" grid="1" gridSize="10" guides="1" tooltips="1" connect="1" arrows="0" fold="1" page="1" pageScale="1" pageWidth="827" pageHeight="1169" math="0" shadow="0">
      <root>
        <mxCell id="0" />
        <mxCell id="1" parent="0" />
        <mxCell id="1DuG-6XNfQ7v3wwAHDZl-87" style="edgeStyle=none;rounded=0;orthogonalLoop=1;jettySize=auto;html=1;exitX=0;exitY=1;exitDx=0;exitDy=0;entryX=0.5;entryY=0;entryDx=0;entryDy=0;" edge="1" parent="1" source="1DuG-6XNfQ7v3wwAHDZl-15" target="1DuG-6XNfQ7v3wwAHDZl-86">
          <mxGeometry relative="1" as="geometry">
            <Array as="points">
              <mxPoint x="-310" y="330" />
            </Array>
          </mxGeometry>
        </mxCell>
        <mxCell id="1DuG-6XNfQ7v3wwAHDZl-15" value="Respondente" style="swimlane;childLayout=stackLayout;horizontal=1;startSize=50;horizontalStack=0;rounded=1;fontSize=14;fontStyle=0;strokeWidth=2;resizeParent=0;resizeLast=1;shadow=0;dashed=0;align=center;arcSize=4;whiteSpace=wrap;html=1;" vertex="1" collapsed="1" parent="1">
          <mxGeometry x="-310" y="218" width="120" height="50" as="geometry">
            <mxRectangle x="-350" y="195" width="350" height="265" as="alternateBounds" />
          </mxGeometry>
        </mxCell>
        <mxCell id="1DuG-6XNfQ7v3wwAHDZl-16" value="ID_respondente, PK&lt;div&gt;ID_entrevisa,FK&lt;/div&gt;&lt;div&gt;ID_residencia,FK&lt;/div&gt;&lt;div&gt;ID_familia, FK&lt;br&gt;nome_completo, char(RD.2)&lt;br&gt;apelido, char (RD.3)&lt;div&gt;tipo, char,&lt;/div&gt;&lt;div&gt;&lt;span style=&quot;background-color: initial;&quot;&gt;estado_nascimento, char (RD.19)&lt;/span&gt;&lt;/div&gt;&lt;div&gt;&lt;span style=&quot;background-color: initial;&quot;&gt;cidade_nascimento, char (RD.20)&lt;/span&gt;&lt;/div&gt;&lt;div&gt;&lt;span style=&quot;background-color: initial;&quot;&gt;pertence_comunidade_pesqueira, boolean(RD.15.2)&lt;/span&gt;&lt;/div&gt;&lt;div&gt;&lt;span style=&quot;background-color: initial;&quot;&gt;comunidade_pesqueira, char (&lt;/span&gt;&lt;span style=&quot;background-color: initial;&quot;&gt;RD.15.3)&lt;/span&gt;&lt;/div&gt;&lt;div&gt;reside_outro_municipio, boolean (RD.11)&lt;/div&gt;&lt;div&gt;&lt;br&gt;&lt;/div&gt;&lt;div&gt;&lt;br&gt;&lt;/div&gt;&lt;/div&gt;" style="align=left;strokeColor=none;fillColor=none;spacingLeft=4;fontSize=12;verticalAlign=top;resizable=0;rotatable=0;part=1;html=1;" vertex="1" parent="1DuG-6XNfQ7v3wwAHDZl-15">
          <mxGeometry y="50" width="350" height="215" as="geometry" />
        </mxCell>
        <mxCell id="1DuG-6XNfQ7v3wwAHDZl-21" style="edgeStyle=orthogonalEdgeStyle;rounded=0;orthogonalLoop=1;jettySize=auto;html=1;exitX=0;exitY=0.5;exitDx=0;exitDy=0;entryX=1;entryY=0.5;entryDx=0;entryDy=0;" edge="1" parent="1" source="1DuG-6XNfQ7v3wwAHDZl-17" target="1DuG-6XNfQ7v3wwAHDZl-19">
          <mxGeometry relative="1" as="geometry" />
        </mxCell>
        <mxCell id="1DuG-6XNfQ7v3wwAHDZl-17" value="Entrevista" style="swimlane;childLayout=stackLayout;horizontal=1;startSize=50;horizontalStack=0;rounded=1;fontSize=14;fontStyle=0;strokeWidth=2;resizeParent=0;resizeLast=1;shadow=0;dashed=0;align=center;arcSize=4;whiteSpace=wrap;html=1;" vertex="1" collapsed="1" parent="1">
          <mxGeometry x="-205" y="-230" width="100" height="50" as="geometry">
            <mxRectangle x="-205" y="-230" width="210" height="140" as="alternateBounds" />
          </mxGeometry>
        </mxCell>
        <mxCell id="1DuG-6XNfQ7v3wwAHDZl-18" value="ID_entrevista, PK&lt;br&gt;nome_recenseador, char&lt;br&gt;&lt;div&gt;municipio_entrevista, char (RD.0)&lt;/div&gt;&lt;div&gt;data_entrevista, date&lt;/div&gt;" style="align=left;strokeColor=none;fillColor=none;spacingLeft=4;fontSize=12;verticalAlign=top;resizable=0;rotatable=0;part=1;html=1;" vertex="1" parent="1DuG-6XNfQ7v3wwAHDZl-17">
          <mxGeometry y="50" width="210" height="90" as="geometry" />
        </mxCell>
        <mxCell id="1DuG-6XNfQ7v3wwAHDZl-64" style="edgeStyle=orthogonalEdgeStyle;rounded=0;orthogonalLoop=1;jettySize=auto;html=1;exitX=0.5;exitY=1;exitDx=0;exitDy=0;entryX=0.5;entryY=0;entryDx=0;entryDy=0;" edge="1" parent="1" source="1DuG-6XNfQ7v3wwAHDZl-19" target="1DuG-6XNfQ7v3wwAHDZl-15">
          <mxGeometry relative="1" as="geometry" />
        </mxCell>
        <mxCell id="1DuG-6XNfQ7v3wwAHDZl-19" value="responde" style="shape=rhombus;perimeter=rhombusPerimeter;whiteSpace=wrap;html=1;align=center;" vertex="1" parent="1">
          <mxGeometry x="-160" y="-10" width="120" height="70" as="geometry" />
        </mxCell>
        <mxCell id="1DuG-6XNfQ7v3wwAHDZl-25" value="Local_Residencia" style="swimlane;childLayout=stackLayout;horizontal=1;startSize=50;horizontalStack=0;rounded=1;fontSize=14;fontStyle=0;strokeWidth=2;resizeParent=0;resizeLast=1;shadow=0;dashed=0;align=center;arcSize=4;whiteSpace=wrap;html=1;" vertex="1" collapsed="1" parent="1">
          <mxGeometry x="280" y="218" width="150" height="50" as="geometry">
            <mxRectangle x="290" y="200" width="320" height="280" as="alternateBounds" />
          </mxGeometry>
        </mxCell>
        <mxCell id="1DuG-6XNfQ7v3wwAHDZl-26" value="ID_residencia, PK&lt;div&gt;ID_respondente, FK&lt;br&gt;tipo_logradouro, char (RD.4)&lt;br&gt;nome_logradouro, char (RD.5)&lt;div&gt;numero_logradouro, int (RD.6)&lt;/div&gt;&lt;div&gt;complemento, char(RD.7)&lt;/div&gt;&lt;div&gt;bairro,char(RD.8)&lt;/div&gt;&lt;div&gt;municipio, char&lt;span style=&quot;background-color: initial;&quot;&gt;(RD.9)&lt;/span&gt;&lt;/div&gt;&lt;div&gt;estado, char&lt;span style=&quot;background-color: initial;&quot;&gt;(RD.10)&lt;/span&gt;&lt;/div&gt;&lt;div&gt;latitude, float&lt;span style=&quot;background-color: initial;&quot;&gt;(RD.1)&lt;/span&gt;&lt;/div&gt;&lt;div&gt;longitude, float&lt;span style=&quot;background-color: initial;&quot;&gt;(RD.2)&lt;/span&gt;&lt;/div&gt;&lt;div&gt;&lt;span style=&quot;background-color: initial;&quot;&gt;comunidade_pesqueira, boolean (RD.11)&lt;/span&gt;&lt;/div&gt;&lt;div&gt;&lt;span style=&quot;background-color: initial;&quot;&gt;menor_de_idade, boolean(RD.18)&lt;/span&gt;&lt;/div&gt;&lt;div&gt;&lt;span style=&quot;background-color: initial;&quot;&gt;anos_completos_neste_bairro, int (RD.23)&lt;/span&gt;&lt;/div&gt;&lt;div&gt;&lt;span style=&quot;background-color: initial;&quot;&gt;outra_familia_pesqueira, boolean(RD.37)&lt;/span&gt;&lt;/div&gt;&lt;div&gt;&lt;br&gt;&lt;/div&gt;&lt;div&gt;&lt;br&gt;&lt;/div&gt;&lt;div&gt;&lt;br&gt;&lt;/div&gt;&lt;/div&gt;" style="align=left;strokeColor=none;fillColor=none;spacingLeft=4;fontSize=12;verticalAlign=top;resizable=0;rotatable=0;part=1;html=1;" vertex="1" parent="1DuG-6XNfQ7v3wwAHDZl-25">
          <mxGeometry y="50" width="320" height="230" as="geometry" />
        </mxCell>
        <mxCell id="1DuG-6XNfQ7v3wwAHDZl-62" value="historico_familiar" style="swimlane;childLayout=stackLayout;horizontal=1;startSize=50;horizontalStack=0;rounded=1;fontSize=14;fontStyle=0;strokeWidth=2;resizeParent=0;resizeLast=1;shadow=0;dashed=0;align=center;arcSize=4;whiteSpace=wrap;html=1;" vertex="1" collapsed="1" parent="1">
          <mxGeometry x="-385" y="510" width="150" height="50" as="geometry">
            <mxRectangle x="-405" y="460" width="260" height="230" as="alternateBounds" />
          </mxGeometry>
        </mxCell>
        <mxCell id="1DuG-6XNfQ7v3wwAHDZl-63" value="ID_familia, PK&lt;div&gt;ID_respondente, FK&lt;/div&gt;&lt;div&gt;&lt;div&gt;possui_filhos, boolean (RD.16)&lt;/div&gt;&lt;div&gt;quant_filhos, int (RD.17)&lt;/div&gt;&lt;div&gt;responsavel_criacao, char (RD.29),&amp;nbsp;&lt;/div&gt;&lt;div&gt;&lt;span style=&quot;background-color: initial;&quot;&gt;grau_escolaridade_masc, char (RD.30)&lt;/span&gt;&lt;/div&gt;&lt;div&gt;&lt;span style=&quot;background-color: initial;&quot;&gt;trabalho_remunerado_masc, char(RD.31)&lt;/span&gt;&lt;/div&gt;&lt;div&gt;&lt;span style=&quot;background-color: initial;&quot;&gt;situacao_trabalho_masc, char(RD.32)&lt;/span&gt;&lt;/div&gt;&lt;div&gt;&lt;div&gt;&lt;span style=&quot;background-color: initial;&quot;&gt;grau_escolaridade_fem, char (RD.33&lt;/span&gt;&lt;span style=&quot;background-color: initial;&quot;&gt;)&lt;/span&gt;&lt;/div&gt;&lt;/div&gt;&lt;div&gt;&lt;div&gt;&lt;span style=&quot;background-color: initial;&quot;&gt;trabalho_remunerado_fem, char(RD.34)&lt;/span&gt;&lt;/div&gt;&lt;div&gt;&lt;/div&gt;&lt;/div&gt;&lt;div&gt;&lt;div&gt;&lt;span style=&quot;background-color: initial;&quot;&gt;situacao_trabalho_fem, char(RD.35)&lt;/span&gt;&lt;/div&gt;&lt;div&gt;&lt;span style=&quot;background-color: initial;&quot;&gt;&lt;br&gt;&lt;/span&gt;&lt;/div&gt;&lt;div&gt;&lt;/div&gt;&lt;/div&gt;&lt;/div&gt;" style="align=left;strokeColor=none;fillColor=none;spacingLeft=4;fontSize=12;verticalAlign=top;resizable=0;rotatable=0;part=1;html=1;" vertex="1" parent="1DuG-6XNfQ7v3wwAHDZl-62">
          <mxGeometry y="50" width="260" height="180" as="geometry" />
        </mxCell>
        <mxCell id="1DuG-6XNfQ7v3wwAHDZl-68" style="edgeStyle=orthogonalEdgeStyle;rounded=0;orthogonalLoop=1;jettySize=auto;html=1;exitX=0.5;exitY=1;exitDx=0;exitDy=0;" edge="1" parent="1DuG-6XNfQ7v3wwAHDZl-62" source="1DuG-6XNfQ7v3wwAHDZl-63" target="1DuG-6XNfQ7v3wwAHDZl-63">
          <mxGeometry relative="1" as="geometry" />
        </mxCell>
        <mxCell id="1DuG-6XNfQ7v3wwAHDZl-70" value="historico_residencial" style="swimlane;childLayout=stackLayout;horizontal=1;startSize=50;horizontalStack=0;rounded=1;fontSize=14;fontStyle=0;strokeWidth=2;resizeParent=0;resizeLast=1;shadow=0;dashed=0;align=center;arcSize=4;whiteSpace=wrap;html=1;" vertex="1" collapsed="1" parent="1">
          <mxGeometry x="-90" y="360" width="170" height="50" as="geometry">
            <mxRectangle x="-90" y="360" width="280" height="210" as="alternateBounds" />
          </mxGeometry>
        </mxCell>
        <mxCell id="1DuG-6XNfQ7v3wwAHDZl-71" value="&lt;div&gt;ID_historico_residencial, PK&lt;/div&gt;&lt;div&gt;cidade_15_anos, char (RD.21)&lt;/div&gt;&lt;div&gt;estado_15_anos, char (RD.22)&lt;/div&gt;&lt;div&gt;removido_obrigado_mudar, boolean(RD.23.1)&lt;/div&gt;&lt;div&gt;razao_removido_obrigado_mudar, char(RD.23.2)&lt;/div&gt;&lt;div&gt;logradouro_5_anos_atras, char(RD.25)&lt;/div&gt;&lt;div&gt;bairro_5_anos_atras, char(RD.26)&lt;/div&gt;&lt;div&gt;&lt;div&gt;municipio_5_anos_atras, char(RD.27)&lt;/div&gt;&lt;div&gt;estado&lt;span style=&quot;background-color: initial;&quot;&gt;_5_anos_atras, char(RD.28)&lt;/span&gt;&lt;/div&gt;&lt;div&gt;&lt;br&gt;&lt;/div&gt;&lt;div&gt;&lt;br&gt;&lt;/div&gt;&lt;/div&gt;&lt;div&gt;&lt;br&gt;&lt;/div&gt;&lt;div&gt;&lt;br&gt;&lt;/div&gt;&lt;div&gt;&lt;br&gt;&lt;/div&gt;" style="align=left;strokeColor=none;fillColor=none;spacingLeft=4;fontSize=12;verticalAlign=top;resizable=0;rotatable=0;part=1;html=1;" vertex="1" parent="1DuG-6XNfQ7v3wwAHDZl-70">
          <mxGeometry y="50" width="280" height="160" as="geometry" />
        </mxCell>
        <mxCell id="1DuG-6XNfQ7v3wwAHDZl-72" value="Antepassado_pesca" style="swimlane;childLayout=stackLayout;horizontal=1;startSize=50;horizontalStack=0;rounded=1;fontSize=14;fontStyle=0;strokeWidth=2;resizeParent=0;resizeLast=1;shadow=0;dashed=0;align=center;arcSize=4;whiteSpace=wrap;html=1;" vertex="1" collapsed="1" parent="1">
          <mxGeometry x="-620" y="348" width="170" height="50" as="geometry">
            <mxRectangle x="-610" y="348" width="250" height="170" as="alternateBounds" />
          </mxGeometry>
        </mxCell>
        <mxCell id="1DuG-6XNfQ7v3wwAHDZl-73" value="ID_antepassado_pesca,PK&lt;div&gt;ID_respondente, FK&lt;/div&gt;&lt;div&gt;nome_antepassado, char (RD.36.1)&lt;/div&gt;&lt;div&gt;&lt;br&gt;&lt;div&gt;&lt;br&gt;&lt;/div&gt;&lt;/div&gt;" style="align=left;strokeColor=none;fillColor=none;spacingLeft=4;fontSize=12;verticalAlign=top;resizable=0;rotatable=0;part=1;html=1;" vertex="1" parent="1DuG-6XNfQ7v3wwAHDZl-72">
          <mxGeometry y="50" width="250" height="120" as="geometry" />
        </mxCell>
        <mxCell id="1DuG-6XNfQ7v3wwAHDZl-74" value="(1,1)" style="text;html=1;align=center;verticalAlign=middle;resizable=0;points=[];autosize=1;strokeColor=none;fillColor=none;" vertex="1" parent="1">
          <mxGeometry x="-295" y="168" width="50" height="30" as="geometry" />
        </mxCell>
        <mxCell id="1DuG-6XNfQ7v3wwAHDZl-75" value="(1,1)" style="text;html=1;align=center;verticalAlign=middle;resizable=0;points=[];autosize=1;strokeColor=none;fillColor=none;" vertex="1" parent="1">
          <mxGeometry x="-255" y="-232" width="50" height="30" as="geometry" />
        </mxCell>
        <mxCell id="1DuG-6XNfQ7v3wwAHDZl-82" value="(1,N)" style="text;html=1;align=center;verticalAlign=middle;resizable=0;points=[];autosize=1;strokeColor=none;fillColor=none;" vertex="1" parent="1">
          <mxGeometry x="-540" y="318" width="50" height="30" as="geometry" />
        </mxCell>
        <mxCell id="1DuG-6XNfQ7v3wwAHDZl-83" value="relaciona" style="shape=associativeEntity;whiteSpace=wrap;html=1;align=center;" vertex="1" parent="1">
          <mxGeometry x="-650" y="213" width="140" height="60" as="geometry" />
        </mxCell>
        <mxCell id="1DuG-6XNfQ7v3wwAHDZl-85" value="possui" style="shape=rhombus;perimeter=rhombusPerimeter;whiteSpace=wrap;html=1;align=center;" vertex="1" parent="1">
          <mxGeometry x="-30" y="213" width="120" height="60" as="geometry" />
        </mxCell>
        <mxCell id="1DuG-6XNfQ7v3wwAHDZl-86" value="possui" style="shape=rhombus;perimeter=rhombusPerimeter;whiteSpace=wrap;html=1;align=center;" vertex="1" parent="1">
          <mxGeometry x="-370" y="390" width="120" height="60" as="geometry" />
        </mxCell>
        <mxCell id="1DuG-6XNfQ7v3wwAHDZl-89" value="(1,1)" style="text;html=1;align=center;verticalAlign=middle;resizable=0;points=[];autosize=1;strokeColor=none;fillColor=none;" vertex="1" parent="1">
          <mxGeometry x="-295" y="268" width="50" height="30" as="geometry" />
        </mxCell>
        <mxCell id="1DuG-6XNfQ7v3wwAHDZl-90" value="(1,1)" style="text;html=1;align=center;verticalAlign=middle;resizable=0;points=[];autosize=1;strokeColor=none;fillColor=none;" vertex="1" parent="1">
          <mxGeometry x="-320" y="480" width="50" height="30" as="geometry" />
        </mxCell>
        <mxCell id="1DuG-6XNfQ7v3wwAHDZl-93" value="" style="endArrow=none;html=1;rounded=0;entryX=0;entryY=0.5;entryDx=0;entryDy=0;exitX=1;exitY=0.5;exitDx=0;exitDy=0;" edge="1" parent="1" source="1DuG-6XNfQ7v3wwAHDZl-83" target="1DuG-6XNfQ7v3wwAHDZl-15">
          <mxGeometry relative="1" as="geometry">
            <mxPoint x="-520" y="240" as="sourcePoint" />
            <mxPoint x="-360" y="240" as="targetPoint" />
          </mxGeometry>
        </mxCell>
        <mxCell id="1DuG-6XNfQ7v3wwAHDZl-94" value="(1,1)" style="text;html=1;align=center;verticalAlign=middle;resizable=0;points=[];autosize=1;strokeColor=none;fillColor=none;" vertex="1" parent="1">
          <mxGeometry x="-355" y="218" width="50" height="30" as="geometry" />
        </mxCell>
        <mxCell id="1DuG-6XNfQ7v3wwAHDZl-95" value="" style="endArrow=none;html=1;rounded=0;entryX=0;entryY=0.5;entryDx=0;entryDy=0;exitX=1;exitY=0.5;exitDx=0;exitDy=0;" edge="1" parent="1" source="1DuG-6XNfQ7v3wwAHDZl-77" target="1DuG-6XNfQ7v3wwAHDZl-25">
          <mxGeometry relative="1" as="geometry">
            <mxPoint x="100" y="242.5" as="sourcePoint" />
            <mxPoint x="260" y="242.5" as="targetPoint" />
          </mxGeometry>
        </mxCell>
        <mxCell id="1DuG-6XNfQ7v3wwAHDZl-96" value="" style="endArrow=none;html=1;rounded=0;entryX=0;entryY=0.5;entryDx=0;entryDy=0;exitX=1;exitY=0.5;exitDx=0;exitDy=0;" edge="1" parent="1" source="1DuG-6XNfQ7v3wwAHDZl-76" target="1DuG-6XNfQ7v3wwAHDZl-85">
          <mxGeometry relative="1" as="geometry">
            <mxPoint x="-170" y="243" as="sourcePoint" />
            <mxPoint x="-30" y="242.5" as="targetPoint" />
            <Array as="points" />
          </mxGeometry>
        </mxCell>
        <mxCell id="1DuG-6XNfQ7v3wwAHDZl-97" value="" style="endArrow=none;html=1;rounded=0;exitX=0.5;exitY=1;exitDx=0;exitDy=0;entryX=0.75;entryY=0;entryDx=0;entryDy=0;" edge="1" parent="1" source="1DuG-6XNfQ7v3wwAHDZl-83" target="1DuG-6XNfQ7v3wwAHDZl-72">
          <mxGeometry relative="1" as="geometry">
            <mxPoint x="-570" y="298" as="sourcePoint" />
            <mxPoint x="-410" y="298" as="targetPoint" />
            <Array as="points">
              <mxPoint x="-580" y="300" />
              <mxPoint x="-492" y="300" />
            </Array>
          </mxGeometry>
        </mxCell>
        <mxCell id="1DuG-6XNfQ7v3wwAHDZl-98" value="" style="endArrow=none;html=1;rounded=0;entryX=0.5;entryY=0;entryDx=0;entryDy=0;" edge="1" parent="1" target="1DuG-6XNfQ7v3wwAHDZl-62">
          <mxGeometry relative="1" as="geometry">
            <mxPoint x="-310" y="450" as="sourcePoint" />
            <mxPoint x="-150" y="450" as="targetPoint" />
            <Array as="points">
              <mxPoint x="-310" y="490" />
            </Array>
          </mxGeometry>
        </mxCell>
        <mxCell id="1DuG-6XNfQ7v3wwAHDZl-99" value="" style="endArrow=none;html=1;rounded=0;entryX=0;entryY=0.5;entryDx=0;entryDy=0;exitX=1;exitY=0.5;exitDx=0;exitDy=0;" edge="1" parent="1" source="1DuG-6XNfQ7v3wwAHDZl-85" target="1DuG-6XNfQ7v3wwAHDZl-77">
          <mxGeometry relative="1" as="geometry">
            <mxPoint x="90" y="243" as="sourcePoint" />
            <mxPoint x="280" y="243" as="targetPoint" />
          </mxGeometry>
        </mxCell>
        <mxCell id="1DuG-6XNfQ7v3wwAHDZl-77" value="(1,N)" style="text;html=1;align=center;verticalAlign=middle;resizable=0;points=[];autosize=1;strokeColor=none;fillColor=none;" vertex="1" parent="1">
          <mxGeometry x="220" y="228" width="50" height="30" as="geometry" />
        </mxCell>
        <mxCell id="1DuG-6XNfQ7v3wwAHDZl-76" value="(1, N)" style="text;html=1;align=center;verticalAlign=middle;resizable=0;points=[];autosize=1;strokeColor=none;fillColor=none;" vertex="1" parent="1">
          <mxGeometry x="-160" y="198" width="50" height="30" as="geometry" />
        </mxCell>
      </root>
    </mxGraphModel>
  </diagram>
</mxfile>
